<svg width="110" height="66" viewBox="0 0 110 66" fill="none" xmlns="http://www.w3.org/2000/svg">
<path d="M96.8089 40.6055C96.755 40.6055 96.7041 40.6211 96.6501 40.6211C97.6506 38.3136 98.2107 35.7635 98.2107 33.0804C98.2107 22.5672 89.6875 14.0409 79.172 14.0409C75.4564 14.0409 71.9997 15.1204 69.0694 16.9664C65.1059 7.32935 55.6354 0.539574 44.5723 0.539574C29.9422 0.539574 18.082 12.3982 18.082 27.0338C18.082 28.1367 18.1712 29.2162 18.3026 30.2878C18.2283 30.2878 18.1563 30.28 18.082 30.28C8.27283 30.28 0.320656 38.2275 0.320656 48.0367C0.320656 57.8459 8.27283 65.8011 18.082 65.8011H96.8089C103.766 65.8011 109.405 60.1612 109.405 53.2072C109.405 46.2453 103.766 40.6055 96.8089 40.6055Z" fill="#C2CEF2"/>
</svg>
